<svg xmlns="http://www.w3.org/2000/svg" height="16" width="18" viewBox="0 0 576 512"><!--!Font Awesome Pro 6.5.1 by @fontawesome - https://fontawesome.com License - https://fontawesome.com/license (Commercial License) Copyright 2024 Fonticons, Inc.--><path class="fa-secondary" opacity="0.4" fill="#4ccaff" d="M143.1 512h3.2c-1.1 .1-2.1 .1-3.2 0zM288 439.8V0c0 0 .1 0 .1 0c12.2 0 23.4 7 28.8 18l64.3 132.3 143.6 21.2c12 1.8 22 10.2 25.7 21.7s.7 24.2-7.9 32.7L438.5 329l24.6 145.7c2 12-3 24.2-12.9 31.3s-23 8-33.8 2.3L288.1 439.8l-.1 .1z"/><path class="fa-primary" opacity="1" fill="#0987eb" d="M288 0c-12.2 .1-23.3 7-28.6 18L195 150.3 51.4 171.5c-12 1.8-22 10.2-25.7 21.7s-.7 24.2 7.9 32.7L137.8 329 113.2 474.7c-2 12 3 24.2 12.9 31.3s23 8 33.8 2.3L288 439.8V0zM429.9 512c1.1 .1 2.1 .1 3.2 0h-3.2z"/></svg>