<?xml version="1.0" encoding="UTF-8"?>
<svg width="20px" height="20px" viewBox="0 0 20 20" version="1.1" xmlns="http://www.w3.org/2000/svg" xmlns:xlink="http://www.w3.org/1999/xlink">
    <!-- Generator: Sketch 51.2 (57519) - http://www.bohemiancoding.com/sketch -->
    <title>icn/news-menu</title>
    <desc>Created with Sketch.</desc>
    <defs></defs>
    <g id="icn/news-menu" stroke="none" stroke-width="1" fill="none" fill-rule="evenodd">
        <path d="M5,2 L17,2 C17.5522847,2 18,2.44771525 18,3 L18,15 C18,15.5522847 17.5522847,16 17,16 L5,16 C4.44771525,16 4,15.5522847 4,15 L4,3 C4,2.44771525 4.44771525,2 5,2 Z M15,5 L15,4 L6,4 L6,5 L15,5 Z M15,11 L15,10 L6,10 L6,11 L15,11 Z M16,14 L16,13 L6,13 L6,14 L16,14 Z M12,8 L12,7 L6,7 L6,8 L12,8 Z M5,17 L14,17 L14,18 L5,18 C3.34314575,18 2,16.6568542 2,15 L2,6 L3,6 L3,15 C3,16.1045695 3.8954305,17 5,17 Z" id="Combined-Shape" fill="#0987EB"></path>
    </g>
</svg>