<?xml version="1.0" encoding="UTF-8"?>
<svg width="20px" height="20px" viewBox="0 0 20 20" version="1.1" xmlns="http://www.w3.org/2000/svg" xmlns:xlink="http://www.w3.org/1999/xlink">
    <!-- Generator: Sketch 51.2 (57519) - http://www.bohemiancoding.com/sketch -->
    <title>icn/price-default</title>
    <desc>Created with Sketch.</desc>
    <defs></defs>
    <g id="icn/price-default" stroke="none" stroke-width="1" fill="none" fill-rule="evenodd">
        <path d="M10.17175,1 C10.17175,1 0.89275,10.279 0.58575,10.586 C-0.19525,11.367 -0.19525,12.633 0.58575,13.414 C1.50375,14.332 5.41375,18.242 6.58575,19.414 C7.36675,20.195 8.63275,20.195 9.41375,19.414 C9.72075,19.107 18.99975,9.828 18.99975,9.828 L18.99975,2 C18.99975,1.44771525 18.5520347,1 17.99975,1 L10.17175,1 Z M15.49975,6 C14.67175,6 13.99975,5.328 13.99975,4.5 C13.99975,3.672 14.67175,3 15.49975,3 C16.32775,3 16.99975,3.672 16.99975,4.5 C16.99975,5.328 16.32775,6 15.49975,6 Z" id="Shape" fill="#0987eb" fill-rule="nonzero"></path>
        <path d="M6.03669069,15.4226907 L6.03669069,7.02269069 L9.19269069,7.02269069 C10.1646907,7.02269069 10.9446907,7.29869069 11.4726907,7.82669069 C11.9286907,8.28269069 12.1806907,8.94269069 12.1806907,9.77069069 L12.1806907,9.81869069 C12.1806907,11.0906907 11.5446907,11.8946907 10.6206907,12.3026907 L12.4086907,15.4226907 L10.4166907,15.4226907 L8.86869069,12.6626907 L7.77669069,12.6626907 L7.77669069,15.4226907 L6.03669069,15.4226907 Z M7.77669069,11.1266907 L9.06069069,11.1266907 C9.94869069,11.1266907 10.4286907,10.6226907 10.4286907,9.86669069 L10.4286907,9.85469069 C10.4286907,9.01469069 9.91269069,8.59469069 9.02469069,8.59469069 L7.77669069,8.59469069 L7.77669069,11.1266907 Z" id="R" fill="#FFFFFF" transform="translate(9.222691, 11.222691) rotate(-315.000000) translate(-9.222691, -11.222691) "></path>
    </g>
</svg>