<?xml version="1.0" encoding="UTF-8"?>
<svg width="20px" height="20px" viewBox="0 0 20 20" version="1.1" xmlns="http://www.w3.org/2000/svg" xmlns:xlink="http://www.w3.org/1999/xlink">
    <!-- Generator: Sketch 51.2 (57519) - http://www.bohemiancoding.com/sketch -->
    <title>icn/sell-a-car-menu</title>
    <desc>Created with Sketch.</desc>
    <defs></defs>
    <g id="icn/sell-a-car-menu" stroke="none" stroke-width="1" fill="none" fill-rule="evenodd">
        <path d="M3.87949858,10.757382 L3.6437504,11.4444444 L16.3562504,11.4444444 L15.025,7.55555556 L10.6030125,7.55555556 C9.78883625,9.57486676 7.81084698,11 5.5,11 C4.93597586,11 4.39178122,10.9150998 3.87949858,10.757382 Z M2.43044086,10.0644264 C0.964318368,9.07652236 0,7.40087549 0,5.5 C0,2.46243388 2.46243388,0 5.5,0 C8.53756612,0 11,2.46243388 11,5.5 C11,5.66854485 10.9924187,5.83531898 10.9775785,6 L15.0218752,6 C15.7125,6 16.3218752,6.42838522 16.5406248,7.06336844 L18,11.3198787 L18,19.2222222 C18,19.6506074 17.6406248,20 17.2,20 L15.6,20 C15.1593752,20 14.8,19.6506074 14.8,19.2222222 L14.8,17.6666667 L5.2,17.6666667 L5.2,19.2222222 C5.2,19.6506074 4.8406248,20 4.4,20 L2.8,20 C2.3593752,20 2,19.6506074 2,19.2222222 L2,11.3198787 L2.43044086,10.0644264 Z M4.8,15.3333333 C5.4625,15.3333333 6,14.8107639 6,14.1666667 C6,13.5225694 5.4625,13 4.8,13 C4.1375,13 3.6,13.5225694 3.6,14.1666667 C3.6,14.8107639 4.1375,15.3333333 4.8,15.3333333 Z M15.2,15.3333333 C15.8625,15.3333333 16.4,14.8107639 16.4,14.1666667 C16.4,13.5225694 15.8625,13 15.2,13 C14.5375,13 14,13.5225694 14,14.1666667 C14,14.8107639 14.5375,15.3333333 15.2,15.3333333 Z M2.5,5 C2.22385763,5 2,5.22385763 2,5.5 C2,5.77614237 2.22385763,6 2.5,6 L8.5,6 C8.77614237,6 9,5.77614237 9,5.5 C9,5.22385763 8.77614237,5 8.5,5 L2.5,5 Z" id="Combined-Shape" fill="#0987EB" fill-rule="nonzero"></path>
    </g>
</svg>