<svg xmlns="http://www.w3.org/2000/svg" width="25" height="19" viewBox="0 0 25 19">
    <g fill="#787C83" fill-rule="evenodd">
        <path d="M2 7a5 5 0 1 1 10.001.001A5 5 0 0 1 2 7m16.221 10.293l-5.829-5.829a7 7 0 1 0-1.484 1.344l5.899 5.899a.999.999 0 1 0 1.414-1.414M24.006 17A.997.997 0 0 0 25 16c0-.556-.445-1-.994-1h-6.074l1.995 2h4.08z"/>
        <path d="M24.006 11A.998.998 0 0 0 25 10c0-.556-.445-1-.994-1h-8.844a8.4 8.4 0 0 1-.775 2h9.62zM24.006 5A.998.998 0 0 0 25 4c0-.556-.445-1-.994-1h-9.602c.338.623.59 1.296.763 2h8.84z"/>
    </g>
</svg>
