<?xml version="1.0" encoding="UTF-8"?>
<svg width="60px" height="60px" viewBox="0 0 60 60" version="1.1" xmlns="http://www.w3.org/2000/svg" xmlns:xlink="http://www.w3.org/1999/xlink">
    <!-- Generator: Sketch 51.2 (57519) - http://www.bohemiancoding.com/sketch -->
    <title>icn/herobox/finance</title>
    <desc>Created with Sketch.</desc>
    <defs></defs>
    <g id="icn/herobox/finance" stroke="none" stroke-width="1" fill="none" fill-rule="evenodd">
        <rect id="Rectangle-Copy-3" stroke="#0987EB" fill="#D8D8D8" x="43.5" y="22.5" width="1" height="28"></rect>
        <rect id="Rectangle-Copy-6" stroke="#0987EB" fill="#D8D8D8" x="25.5" y="22.5" width="1" height="28"></rect>
        <rect id="Rectangle-Copy-9" stroke="#0987EB" fill="#D8D8D8" x="7.5" y="22.5" width="1" height="28"></rect>
        <rect id="Rectangle-Copy-4" stroke="#0987EB" fill="#D8D8D8" x="51.5" y="22.5" width="1" height="28"></rect>
        <rect id="Rectangle-Copy-7" stroke="#0987EB" fill="#D8D8D8" x="33.5" y="22.5" width="1" height="28"></rect>
        <rect id="Rectangle-Copy-10" stroke="#0987EB" fill="#D8D8D8" x="15.5" y="22.5" width="1" height="28"></rect>
        <rect id="Rectangle-Copy-5" fill="#A9E1FF" x="45" y="22" width="6" height="29"></rect>
        <rect id="Rectangle-Copy-12" fill="#A8D4F5" x="45" y="22" width="6" height="3"></rect>
        <rect id="Rectangle-Copy-8" fill="#A9E1FF" x="27" y="22" width="6" height="29"></rect>
        <rect id="Rectangle-Copy-13" fill="#A8D4F5" x="27" y="22" width="6" height="3"></rect>
        <rect id="Rectangle-Copy-11" fill="#A9E1FF" x="9" y="22" width="6" height="29"></rect>
        <rect id="Rectangle-Copy-14" fill="#A8D4F5" x="9" y="22" width="6" height="3"></rect>
        <path d="M2,58 L58,58 L58,53 L2,53 L2,58 Z M2,51 L58,51 C59.1045695,51 60,51.8954305 60,53 L60,60 L0,60 L0,53 C-1.3527075e-16,51.8954305 0.8954305,51 2,51 Z" id="Rectangle-32" fill="#0987EB" fill-rule="nonzero"></path>
        <polygon id="Path" fill="#D2EFFF" points="2 58 58 58 58 53 2 53"></polygon>
        <polygon id="Path" fill="#E8F7FF" points="2 55 58 55 58 53 2 53"></polygon>
        <path d="M30.0287303,3 L3,20 L57,20 L30.0287303,3 Z M31.0951693,1.30804617 L58.066439,18.3080462 C59.7629678,19.3773688 59.0054079,22 57,22 L3,22 C0.993590453,22 0.236783007,19.3752512 1.93518497,18.3070236 L28.9639153,1.30702364 C29.6153614,0.897289862 30.4441167,0.897687482 31.0951693,1.30804617 Z" id="Rectangle-32-Copy-4" fill="#0987EB" fill-rule="nonzero"></path>
        <polygon id="Path" fill="#D2EFFF" points="30.0287303 3 3 20 57 20"></polygon>
        <polygon id="Combined-Shape" fill="#E8F7FF" points="53.8269094 20 30.0287303 5 6.17985062 20 3 20 30.0287303 3 57 20"></polygon>
        <circle id="Oval-18-Copy-2" fill="#0067CA" opacity="0.195826539" cx="48.5" cy="13.5" r="11.5"></circle>
        <path d="M48.5,21 C53.7467051,21 58,16.7467051 58,11.5 C58,6.25329488 53.7467051,2 48.5,2 C43.2532949,2 39,6.25329488 39,11.5 C39,16.7467051 43.2532949,21 48.5,21 Z M48.5,23 C42.1487254,23 37,17.8512746 37,11.5 C37,5.14872538 42.1487254,0 48.5,0 C54.8512746,0 60,5.14872538 60,11.5 C60,17.8512746 54.8512746,23 48.5,23 Z" id="Oval-18-Copy" fill="#0987EB" fill-rule="nonzero"></path>
        <path d="M48.5,21 C53.7467051,21 58,16.7467051 58,11.5 C58,6.25329488 53.7467051,2 48.5,2 C43.2532949,2 39,6.25329488 39,11.5 C39,16.7467051 43.2532949,21 48.5,21 Z" id="Path" fill="#FFFFFF"></path>
        <path d="M48.064,18.4 C47.9573328,18.4 47.866667,18.3653337 47.792,18.296 C47.717333,18.2266663 47.68,18.1333339 47.68,18.016 L47.68,16.896 C46.9119962,16.821333 46.2533361,16.6346682 45.704,16.336 C45.1546639,16.0373318 44.7386681,15.6720022 44.456,15.24 C44.1733319,14.8079978 44.0213334,14.3466691 44,13.856 C44,13.7706662 44.0346663,13.6933337 44.104,13.624 C44.1733337,13.5546663 44.2559995,13.52 44.352,13.52 L45.792,13.52 C45.9200006,13.52 46.0186663,13.5439998 46.088,13.592 C46.1573337,13.6400002 46.2239997,13.7173328 46.288,13.824 C46.4053339,14.1866685 46.6533314,14.4906654 47.032,14.736 C47.4106686,14.9813346 47.9306634,15.104 48.592,15.104 C49.3280037,15.104 49.8853314,14.9786679 50.264,14.728 C50.6426686,14.4773321 50.832,14.1333355 50.832,13.696 C50.832,13.4079986 50.736001,13.168001 50.544,12.976 C50.351999,12.783999 50.0613353,12.6160007 49.672,12.472 C49.2826647,12.3279993 48.7093371,12.1546677 47.952,11.952 C46.693327,11.6533318 45.7706696,11.2586691 45.184,10.768 C44.5973304,10.2773309 44.304,9.57333792 44.304,8.656 C44.304,7.82399584 44.6053303,7.12000288 45.208,6.544 C45.8106697,5.96799712 46.6346614,5.61600064 47.68,5.488 L47.68,4.384 C47.68,4.26666608 47.717333,4.17333368 47.792,4.104 C47.866667,4.03466632 47.9573328,4 48.064,4 L49.056,4 C49.1733339,4 49.2666663,4.03466632 49.336,4.104 C49.4053337,4.17333368 49.44,4.26666608 49.44,4.384 L49.44,5.52 C50.1333368,5.61600048 50.7279975,5.82133176 51.224,6.136 C51.7200025,6.45066824 52.0986654,6.81599792 52.36,7.232 C52.6213346,7.64800208 52.7626666,8.05333136 52.784,8.448 C52.784,8.54400048 52.7520003,8.62399968 52.688,8.688 C52.6239997,8.75200032 52.5440005,8.784 52.448,8.784 L50.928,8.784 C50.7039989,8.784 50.5493338,8.68800096 50.464,8.496 C50.3999997,8.15466496 50.1893351,7.86933448 49.832,7.64 C49.4746649,7.41066552 49.029336,7.296 48.496,7.296 C47.9093304,7.296 47.4480017,7.40799888 47.112,7.632 C46.7759983,7.85600112 46.608,8.1813312 46.608,8.608 C46.608,8.89600144 46.6906658,9.13599904 46.856,9.328 C47.0213342,9.52000096 47.2879982,9.69066592 47.656,9.84 C48.0240018,9.98933408 48.5493299,10.1493325 49.232,10.32 C50.1813381,10.5333344 50.9359972,10.773332 51.496,11.04 C52.0560028,11.306668 52.469332,11.6426646 52.736,12.048 C53.002668,12.4533354 53.136,12.9706635 53.136,13.6 C53.136,14.5280046 52.80267,15.2799971 52.136,15.856 C51.46933,16.4320029 50.5706723,16.7786661 49.44,16.896 L49.44,18.016 C49.44,18.1333339 49.4053337,18.2266663 49.336,18.296 C49.2666663,18.3653337 49.1733339,18.4 49.056,18.4 L48.064,18.4 Z" id="$-copy" fill="#0987EB"></path>
    </g>
</svg>