<?xml version="1.0" encoding="UTF-8"?>
<svg width="26px" height="26px" viewBox="0 0 26 26" version="1.1" xmlns="http://www.w3.org/2000/svg" xmlns:xlink="http://www.w3.org/1999/xlink">
    <!-- Generator: Sketch 50.2 (55047) - http://www.bohemiancoding.com/sketch -->
    <title>icn/channel-bikes</title>
    <desc>Created with Sketch.</desc>
    <defs></defs>
    <g id="icn/channel-bikes" stroke="none" stroke-width="1" fill="none" fill-rule="evenodd">
        <path d="M18,9.93559608 L19.4303202,12.2513525 C19.9239774,12.0882616 20.4516814,12 21,12 C23.7614237,12 26,14.2385763 26,17 C26,19.7614237 23.7614237,22 21,22 C18.2385763,22 16,19.7614237 16,17 C16,15.5054929 16.6556948,14.1641315 17.6951004,13.2478999 L16.7923845,11.7863598 L12.8244096,17.5659937 C12.6378997,17.8376584 12.3295263,18 12,18 L9.89998188,18 C9.43671155,20.2822403 7.41895791,22 5,22 C2.23857625,22 0,19.7614237 0,17 C0,14.2385763 2.23857625,12 5,12 C7.41895791,12 9.43671155,13.7177597 9.89998188,16 L11.473555,16 L15.6435088,9.92616979 C15.6399858,9.92031882 15.6365138,9.91441919 15.6330937,9.90847112 L15.6310934,9.90500022 C15.1825197,9.12837488 14.280779,8.74035828 12.7711881,8.73020466 C10.8972779,8.97192488 9.11515676,9.68594452 7.59239917,10.8056446 C7.42069013,10.9319041 7.21313249,11 7,11 L2,11 C1.44771525,11 1,10.5522847 1,10 C1,9.44771525 1.44771525,9 2,9 L6.67907145,9 C8.43369123,7.77719214 10.4616399,6.99979578 12.5875597,6.73752412 L12.71,6.73 C14.0348413,6.73 15.1407379,6.97534974 16,7.50114528 L16,6 L14,6 C13.4477153,6 13,5.55228475 13,5 C13,4.44771525 13.4477153,4 14,4 L17,4 C17.5522847,4 18,4.44771525 18,5 L18,6 L19,6 C19.5522847,6 20,6.44771525 20,7 C20,7.55228475 19.5522847,8 19,8 L18,8 L18,9.93559608 Z M18.7718268,14.9911712 C18.2920715,15.5229721 18,16.2273776 18,17 C18,18.6568542 19.3431458,20 21,20 C22.6568542,20 24,18.6568542 24,17 C24,15.3431458 22.6568542,14 21,14 C20.841047,14 20.6849813,14.0123621 20.5327119,14.0361773 L21.970798,16.3645071 C22.2610197,16.8343899 22.1153756,17.4505763 21.6454929,17.740798 C21.1756101,18.0310197 20.5594237,17.8853756 20.269202,17.4154929 L18.7718268,14.9911712 Z M7.82929429,16 C7.41745788,14.8348076 6.30621883,14 5,14 C3.34314575,14 2,15.3431458 2,17 C2,18.6568542 3.34314575,20 5,20 C6.30621883,20 7.41745788,19.1651924 7.82929429,18 L5,18 C4.44771525,18 4,17.5522847 4,17 C4,16.4477153 4.44771525,16 5,16 L7.82929429,16 Z" id="Combined-Shape" fill="#FFFFFF" fill-rule="nonzero"></path>
    </g>
</svg>