<?xml version="1.0" encoding="UTF-8"?>
<svg width="26px" height="26px" viewBox="0 0 26 26" version="1.1" xmlns="http://www.w3.org/2000/svg" xmlns:xlink="http://www.w3.org/1999/xlink">
    <!-- Generator: Sketch 50.2 (55047) - http://www.bohemiancoding.com/sketch -->
    <title>icn/channel-leisure</title>
    <desc>Created with Sketch.</desc>
    <defs></defs>
    <g id="icn/channel-leisure" stroke="none" stroke-width="1" fill="none" fill-rule="evenodd">
        <path d="M20.0918,18.252 C19.3068,19.347 18.0628,20 16.7618,20 L3.3538,20 C2.6078,20 1.9998,19.345 1.9998,18.54 L1.9998,15.964 L23.0698,13.372 L20.0918,18.252 Z M4.2698,8.788 L3.4498,7.848 L9.3628,7.295 C10.9078,7.121 12.4318,7.675 13.5358,8.831 L16.7028,12.141 L4.1078,13.69 L4.7908,10.958 C4.9838,10.192 4.7878,9.382 4.2698,8.788 Z M25.7318,11.655 C25.5018,11.3 25.0918,11.116 24.6778,11.159 L22.4488,11.434 L24.9458,6.867 L18.6298,7.611 C18.0808,7.676 17.6898,8.173 17.7538,8.722 C17.8188,9.27 18.3138,9.668 18.8638,9.598 L21.3318,9.307 L20.1218,11.521 C20.0858,11.587 20.0778,11.658 20.0588,11.728 L19.0448,11.852 C18.9998,11.711 18.9318,11.577 18.8228,11.463 L14.9818,7.448 C13.4408,5.837 11.3118,5.063 9.1538,5.306 L1.5088,6.021 C1.1428,6.056 0.8198,6.27 0.6458,6.595 C0.4878,6.889 0.4858,7.336 0.6428,7.631 C0.6778,7.699 0.7218,7.762 0.7718,7.819 L2.7628,10.104 C2.8508,10.204 2.8838,10.342 2.8518,10.473 L2.0298,13.758 C2.0138,13.821 2.0258,13.883 2.0218,13.945 L-0.0002,14.194 L-0.0002,18.54 C-0.0002,20.448 1.5038,22 3.3538,22 L16.7618,22 C18.7048,22 20.5578,21.034 21.7578,19.356 L25.7488,12.82 C25.9678,12.457 25.9608,12.012 25.7318,11.655 Z" id="Fill-2" fill="#FFFFFF"></path>
        <path d="M7.0947,10.9766 C7.1327,10.9766 7.1727,10.9746 7.2117,10.9696 L11.0207,10.5246 C11.5697,10.4596 11.9617,9.9636 11.8977,9.4146 C11.8327,8.8686 11.3457,8.4736 10.7877,8.5386 L6.9797,8.9836 C6.4307,9.0476 6.0377,9.5436 6.1027,10.0926 C6.1617,10.6016 6.5937,10.9766 7.0947,10.9766" id="Fill-5" fill="#FFFFFF"></path>
    </g>
</svg>