<?xml version="1.0" encoding="UTF-8"?>
<svg width="20px" height="20px" viewBox="0 0 20 20" version="1.1" xmlns="http://www.w3.org/2000/svg" xmlns:xlink="http://www.w3.org/1999/xlink">
    <!-- Generator: Sketch 51.2 (57519) - http://www.bohemiancoding.com/sketch -->
    <title>icn/vehicle-default</title>
    <desc>Created with Sketch.</desc>
    <defs></defs>
    <g id="icn/vehicle-default" stroke="none" stroke-width="1" fill="none" fill-rule="evenodd">
        <path d="M18.175781,2.367188 C17.902344,1.550781 17.140625,1 16.277344,1 L3.722656,1 C2.859375,1 2.097656,1.550781 1.824219,2.367188 L0,7.839844 L0,18 C0,18.550781 0.449219,19 1,19 L3,19 C3.550781,19 4,18.550781 4,18 L4,16 L16,16 L16,18 C16,18.550781 16.449219,19 17,19 L19,19 C19.550781,19 20,18.550781 20,18 L20,7.839844 L18.175781,2.367188 Z M3.5,13 C2.671875,13 2,12.328125 2,11.5 C2,10.671875 2.671875,10 3.5,10 C4.328125,10 5,10.671875 5,11.5 C5,12.328125 4.328125,13 3.5,13 Z M16.5,13 C15.671875,13 15,12.328125 15,11.5 C15,10.671875 15.671875,10 16.5,10 C17.328125,10 18,10.671875 18,11.5 C18,12.328125 17.328125,13 16.5,13 Z M2.054688,8 L3.722656,3 L16.28125,3 L17.945313,8 L2.054688,8 Z" id="Shape" fill="#787C83" fill-rule="nonzero"></path>
    </g>
</svg>