<?xml version="1.0" encoding="utf-8"?>
<!-- Generator: Adobe Illustrator 27.9.0, SVG Export Plug-In . SVG Version: 6.00 Build 0)  -->
<svg version="1.1" id="Layer_1" xmlns="http://www.w3.org/2000/svg" xmlns:xlink="http://www.w3.org/1999/xlink" x="0px" y="0px"
	 viewBox="0 0 80 80" style="enable-background:new 0 0 80 80;" xml:space="preserve">
<style type="text/css">
	.st0{fill:#D3EEFF;}
	.st1{fill:#AAE0FF;stroke:#0887EA;stroke-width:2;stroke-miterlimit:10;}
	.st2{opacity:0.25;fill:#0887EA;}
	.st3{fill:#FFFFFF;}
</style>
<g>
	<path class="st0" d="M27.7,45.1c0,0-11.7-0.5-10.7,1.5c1,2,1.2,3.7,11,5L27.7,45.1z"/>
	<path class="st0" d="M7.2,40.2l4-6.6c0,0,2.6-4.8,5.8-5.6s11.5-3,12.7-2.1C30.8,26.8,28,37,28,37L7.2,40.2z"/>
	<g>
		<path class="st1" d="M5.1,45.1c-0.8,0.8-0.4,3.1,1.8,4c0.2,0.1,0.4,0.1,0.6,0.2c3.3,1.1,8.8,1.2,8.8,1.2s-0.4-3.3-2.5-4.4
			c-0.8-0.4-2.6-0.8-4.2-1.1C7.5,44.7,5.5,44.7,5.1,45.1z"/>
		<path class="st1" d="M19.2,26.6c4-0.8,6.9-0.2,10.1-0.3c0,0,0,0,0,0l0-2.4c1.9-0.1-0.2-1.2-0.2-1.2c-5.5,0.1-9.6-0.8-14.5,3
			c-4.4,3.5-6.5,8.7-6.5,8.7s-5.9,0-5.9,0.8c0,3,2.6,3.3,2.6,3.3c-2.7,2.3-2.2,4.9-2.2,7.9c0,4.5,0.3,5.8,0.9,8v7.5c0,1.1,0.9,2,2,2
			h2.8c1.1,0,2-0.9,2-2v-3c2.1,0.4,3.9,1.2,7,1.2H28h0v-8.7c-0.1,0-0.3,0-0.3,0c-5.7,0-10.7-2.5-10.7-5c0-1.3,5-1.5,10.7-1.5
			c0.1,0,0.2,0,0.3,0V37c0,0,0,0,0,0c-11.1,0.1-17.1-0.1-17.1-0.1S14.9,27.5,19.2,26.6z M9.5,45c1.7,0.2,3.4,0.6,4.2,1.1
			c2,1.1,2.5,4.4,2.5,4.4s-5.5-0.1-8.8-1.2c-0.2-0.1-0.4-0.1-0.6-0.2c-2.2-0.9-2.7-3.2-1.8-4C5.5,44.7,7.5,44.7,9.5,45z"/>
	</g>
	<path class="st2" d="M25.2,60.3V27.9c0-3.3,2.6-5.9,5.9-5.9h1.7v4.4c0,2.2,1.8,3.9,3.9,3.9c2.2,0,5.7,1.8,5.7-0.4l2.2-1.1L60,22
		v4.4c0,2.2,1.7,3.9,3.9,3.9c2.2,0,4.6,2.1,4.6-0.1l2.5-2.7l2.4-4c3.3,0,2,1.2,2,4.4v32.4c0,3.3-2.6,5.9-5.9,5.9H31.1
		C27.8,66.2,25.2,63.6,25.2,60.3z M28.5,60.3c0,1.4,1.1,2.6,2.6,2.6h38.4c1.4,0,2.6-1.1,2.6-2.6V36.9H28.5V60.3z M35.5,44.6h6.1
		c0.5,0,0.8-0.4,0.8-0.8V41c0-0.5-0.4-0.8-0.8-0.8h-6.1c-0.5,0-0.8,0.4-0.8,0.8c0,0,0,0,0,0v2.8C34.7,44.3,35.1,44.6,35.5,44.6
		C35.5,44.6,35.5,44.6,35.5,44.6z M35.5,52.1h6.1c0.5,0,0.8-0.4,0.8-0.8v-2.8c0-0.5-0.4-0.8-0.8-0.8h-6.1c-0.5,0-0.8,0.4-0.8,0.8
		c0,0,0,0,0,0v2.8C34.7,51.7,35.1,52.1,35.5,52.1C35.5,52.1,35.5,52.1,35.5,52.1z M35.5,59.6h6.1c0.5,0,0.8-0.4,0.8-0.8v-2.8
		c0-0.5-0.4-0.8-0.8-0.8h-6.1c-0.5,0-0.8,0.4-0.8,0.8c0,0,0,0,0,0v2.8C34.7,59.2,35.1,59.6,35.5,59.6C35.5,59.6,35.5,59.6,35.5,59.6
		z M47.8,44.6h6.1c0.5,0,0.8-0.4,0.8-0.8V41c0-0.5-0.4-0.8-0.8-0.8h-6.1c-0.5,0-0.8,0.4-0.8,0.8c0,0,0,0,0,0v2.8
		C47,44.3,47.4,44.6,47.8,44.6C47.8,44.6,47.8,44.6,47.8,44.6z M47.8,52.1h6.1c0.5,0,0.8-0.4,0.8-0.8v-2.8c0-0.5-0.4-0.8-0.8-0.8
		h-6.1c-0.5,0-0.8,0.4-0.8,0.8c0,0,0,0,0,0v2.8C47,51.7,47.4,52.1,47.8,52.1C47.8,52.1,47.8,52.1,47.8,52.1z M47.8,59.6h6.1
		c0.5,0,0.8-0.4,0.8-0.8v-2.8c0-0.5-0.4-0.8-0.8-0.8h-6.1c-0.5,0-0.8,0.4-0.8,0.8c0,0,0,0,0,0v2.8C47,59.2,47.4,59.6,47.8,59.6
		C47.8,59.6,47.8,59.6,47.8,59.6z M60.1,44.6h6.1c0.5,0,0.8-0.4,0.8-0.8V41c0-0.5-0.4-0.8-0.8-0.8h-6.1c-0.5,0-0.8,0.4-0.8,0.8
		c0,0,0,0,0,0v2.8C59.3,44.3,59.6,44.6,60.1,44.6C60.1,44.6,60.1,44.6,60.1,44.6z M60.1,52.1h6.1c0.5,0,0.8-0.4,0.8-0.8v-2.8
		c0-0.5-0.4-0.8-0.8-0.8h-6.1c-0.5,0-0.8,0.4-0.8,0.8c0,0,0,0,0,0v2.8C59.3,51.7,59.6,52.1,60.1,52.1C60.1,52.1,60.1,52.1,60.1,52.1
		z M60.1,59.6h6.1c0.5,0,0.8-0.4,0.8-0.8v-2.8c0-0.5-0.4-0.8-0.8-0.8h-6.1c-0.5,0-0.8,0.4-0.8,0.8c0,0,0,0,0,0v2.8
		C59.3,59.2,59.6,59.6,60.1,59.6C60.1,59.6,60.1,59.6,60.1,59.6z"/>
	<rect x="30" y="33.5" class="st3" width="46" height="28.5"/>
	<path class="st1" d="M37.3,24.2v-8.7c0-0.9,0.7-1.7,1.7-1.7s1.7,0.7,1.7,1.7v8.7c0,0.9-0.7,1.7-1.7,1.7S37.3,25.1,37.3,24.2z
		 M27.4,58.1V25.7c0-3.3,2.6-5.9,5.9-5.9H35v4.4c0,2.2,1.8,3.9,3.9,3.9c2.2,0,3.9-1.7,3.9-3.9v-4.4h19.3v4.4c0,2.2,1.7,3.9,3.9,3.9
		s3.9-1.7,3.9-3.9v-4.4h1.7c3.3,0,5.9,2.6,5.9,5.9v32.4c0,3.3-2.6,5.9-5.9,5.9H33.3C30.1,64,27.4,61.4,27.4,58.1z M30.8,58.1
		c0,1.4,1.1,2.6,2.6,2.6h38.4c1.4,0,2.6-1.1,2.6-2.6V34.6H30.8V58.1z M66.1,25.8c0.9,0,1.7-0.7,1.7-1.7c0,0,0,0,0,0v-8.7
		c0-0.9-0.7-1.7-1.7-1.7s-1.7,0.7-1.7,1.7v8.7C64.4,25.1,65.2,25.8,66.1,25.8C66.1,25.8,66.1,25.8,66.1,25.8z M37.8,42.4h6.1
		c0.5,0,0.8-0.4,0.8-0.8v-2.8c0-0.5-0.4-0.8-0.8-0.8h-6.1c-0.5,0-0.8,0.4-0.8,0.8c0,0,0,0,0,0v2.8C36.9,42,37.3,42.4,37.8,42.4
		C37.8,42.4,37.8,42.4,37.8,42.4z M37.8,49.9h6.1c0.5,0,0.8-0.4,0.8-0.8v-2.8c0-0.5-0.4-0.8-0.8-0.8h-6.1c-0.5,0-0.8,0.4-0.8,0.8
		c0,0,0,0,0,0V49C36.9,49.5,37.3,49.9,37.8,49.9C37.8,49.9,37.8,49.9,37.8,49.9z M37.8,57.3h6.1c0.5,0,0.8-0.4,0.8-0.8v-2.8
		c0-0.5-0.4-0.8-0.8-0.8h-6.1c-0.5,0-0.8,0.4-0.8,0.8c0,0,0,0,0,0v2.8C36.9,57,37.3,57.3,37.8,57.3C37.8,57.3,37.8,57.3,37.8,57.3z
		 M50,42.4h6.1c0.5,0,0.8-0.4,0.8-0.8v-2.8c0-0.5-0.4-0.8-0.8-0.8H50c-0.5,0-0.8,0.4-0.8,0.8c0,0,0,0,0,0v2.8
		C49.2,42,49.6,42.4,50,42.4C50,42.4,50,42.4,50,42.4z M50,49.9h6.1c0.5,0,0.8-0.4,0.8-0.8v-2.8c0-0.5-0.4-0.8-0.8-0.8H50
		c-0.5,0-0.8,0.4-0.8,0.8c0,0,0,0,0,0V49C49.2,49.5,49.6,49.9,50,49.9C50,49.9,50,49.9,50,49.9z M50,57.3h6.1c0.5,0,0.8-0.4,0.8-0.8
		v-2.8c0-0.5-0.4-0.8-0.8-0.8H50c-0.5,0-0.8,0.4-0.8,0.8c0,0,0,0,0,0v2.8C49.2,57,49.6,57.3,50,57.3C50,57.3,50,57.3,50,57.3z
		 M62.3,42.4h6.1c0.5,0,0.8-0.4,0.8-0.8v-2.8c0-0.5-0.4-0.8-0.8-0.8h-6.1c-0.5,0-0.8,0.4-0.8,0.8c0,0,0,0,0,0v2.8
		C61.5,42,61.9,42.4,62.3,42.4C62.3,42.4,62.3,42.4,62.3,42.4z M62.3,49.9h6.1c0.5,0,0.8-0.4,0.8-0.8v-2.8c0-0.5-0.4-0.8-0.8-0.8
		h-6.1c-0.5,0-0.8,0.4-0.8,0.8c0,0,0,0,0,0V49C61.5,49.5,61.9,49.9,62.3,49.9C62.3,49.9,62.3,49.9,62.3,49.9z M62.3,57.3h6.1
		c0.5,0,0.8-0.4,0.8-0.8v-2.8c0-0.5-0.4-0.8-0.8-0.8h-6.1c-0.5,0-0.8,0.4-0.8,0.8c0,0,0,0,0,0v2.8C61.5,57,61.9,57.3,62.3,57.3
		C62.3,57.3,62.3,57.3,62.3,57.3z"/>
	<path class="st1" d="M27.4,58.1V25.7c0-3.3,2.6-5.9,5.9-5.9H35v4.4c0,2.2,1.8,3.9,3.9,3.9c2.2,0,3.9-1.7,3.9-3.9v-4.4h19.3v4.4
		c0,2.2,1.7,3.9,3.9,3.9s3.9-1.7,3.9-3.9v-4.4h1.7c3.3,0,5.9,2.6,5.9,5.9v32.4c0,3.3-2.6,5.9-5.9,5.9H33.3
		C30.1,64,27.4,61.4,27.4,58.1z M30.8,58.1c0,1.4,1.1,2.6,2.6,2.6h38.4c1.4,0,2.6-1.1,2.6-2.6V34.6H30.8V58.1z"/>
</g>
</svg>
