<?xml version="1.0" encoding="UTF-8"?>
<svg width="26px" height="26px" viewBox="0 0 26 26" version="1.1" xmlns="http://www.w3.org/2000/svg" xmlns:xlink="http://www.w3.org/1999/xlink">
    <!-- Generator: Sketch 50.2 (55047) - http://www.bohemiancoding.com/sketch -->
    <title>icn/channel-commercial</title>
    <desc>Created with Sketch.</desc>
    <defs></defs>
    <g id="icn/channel-commercial" stroke="none" stroke-width="1" fill="none" fill-rule="evenodd">
        <path d="M19,20 C17.897,20 17,19.103 17,18 C17,16.897 17.897,16 19,16 C20.103,16 21,16.897 21,18 C21,19.103 20.103,20 19,20 Z M15,12 C15,13.103 14.103,14 13,14 L2,14 L2,9 C2,7.346 3.346,6 5,6 L15,6 L15,12 Z M8,18 C8,19.103 7.103,20 6,20 C4.897,20 4,19.103 4,18 C4,16.897 4.897,16 6,16 C7.103,16 8,16.897 8,18 Z M25.572,10.011 L23.148,5.971 C22.789,5.372 22.132,5 21.434,5 L17,5 L17,4 L5,4 C2.243,4 0,6.243 0,9 L0,16 L2.557,16 C2.212,16.591 2,17.268 2,18 C2,20.206 3.794,22 6,22 C8.206,22 10,20.206 10,18 C10,17.268 9.788,16.591 9.443,16 L13,16 C15.206,16 17,14.206 17,12 L17,7 L21.434,7 L23.233,10 L19,10 C18.447,10 18,10.447 18,11 C18,11.553 18.447,12 19,12 L24,12 L24,18 L23,18 C23,15.794 21.206,14 19,14 C16.794,14 15,15.794 15,18 L12,18 C11.447,18 11,18.447 11,19 C11,19.553 11.447,20 12,20 L15.557,20 C16.25,21.189 17.525,22 19,22 C20.475,22 21.75,21.189 22.443,20 L24,20 C25.103,20 26,19.103 26,18 L26,11.554 C26,11.01 25.852,10.477 25.572,10.011 Z" id="Fill-2" fill="#FFFFFF"></path>
    </g>
</svg>