<?xml version="1.0" encoding="UTF-8"?>
<svg width="20px" height="20px" viewBox="0 0 20 20" version="1.1" xmlns="http://www.w3.org/2000/svg" xmlns:xlink="http://www.w3.org/1999/xlink">
    <!-- Generator: Sketch 51.2 (57519) - http://www.bohemiancoding.com/sketch -->
    <title>icn/tech-default</title>
    <desc>Created with Sketch.</desc>
    <defs></defs>
    <g id="icn/tech-default" stroke="none" stroke-width="1" fill="none" fill-rule="evenodd">
        <path d="M16,8 L16,0 L4,0 L4,8 C2.894531,8 2,8.894531 2,10 L2,18 C2,19.105469 2.894531,20 4,20 L16,20 C17.105469,20 18,19.105469 18,18 L18,10 C18,8.894531 17.105469,8 16,8 Z M6,2 L14,2 L14,8 L6,8 L6,2 Z M13,5 L11,5 L11,3 L13,3 L13,5 Z M9,5 L7,5 L7,3 L9,3 L9,5 Z" id="Shape" fill="#787C83" fill-rule="nonzero"></path>
    </g>
</svg>