<?xml version="1.0" encoding="UTF-8"?>
<svg width="26px" height="26px" viewBox="0 0 26 26" version="1.1" xmlns="http://www.w3.org/2000/svg" xmlns:xlink="http://www.w3.org/1999/xlink">
    <!-- Generator: Sketch 50.2 (55047) - http://www.bohemiancoding.com/sketch -->
    <title>icn/channel-cars</title>
    <desc>Created with Sketch.</desc>
    <defs></defs>
    <g id="icn/channel-cars" stroke="none" stroke-width="1" fill="none" fill-rule="evenodd">
        <path d="M21.8550949,16.5000099 L24.0000347,16.5000099 L24.0000345,13.6793687 C24.0003332,13.2135269 23.6789317,12.8091831 23.2298833,12.7054757 L17.3890794,11.387276 L17.1672749,11.053645 L14.7681806,7.44500498 C14.5820672,7.16604908 14.2685215,6.99894988 13.9300343,7.00000993 L9.15073958,7.00000969 C7.96756169,7.0008442 6.89538439,7.69702508 6.40523784,8.79498814 L5.24822358,11.2594285 L2.00002766,12.725757 L2.00000016,15.4182683 L3.27223992,16.1443902 C3.80196547,14.8846025 5.04769603,14.0000099 6.50003426,14.0000099 C8.08554458,14.0000099 9.42482032,15.0542655 9.85509492,16.5000099 L15.1449736,16.5000099 C15.5752482,15.0542655 16.9145239,14.0000099 18.5000343,14.0000099 C20.0855446,14.0000099 21.4248203,15.0542655 21.8550949,16.5000099 Z M21.8550949,18.5000099 C21.4248203,19.9457544 20.0855446,21.0000099 18.5000343,21.0000099 C16.9145239,21.0000099 15.5752482,19.9457544 15.1449736,18.5000099 L9.85509492,18.5000099 C9.42482032,19.9457544 8.08554458,21.0000099 6.50003426,21.0000099 C4.86067034,21.0000099 3.48455233,19.8729202 3.10430146,18.351362 L1.02006836,17.1617515 C0.384828028,16.8047121 -0.00594955635,16.1304292 3.4259345e-05,15.4100099 L3.4259345e-05,11.4342659 L3.75188594,9.74057284 L4.58682894,7.96251018 C5.39040363,6.16170251 7.1773658,5.00140104 9.15003426,5.00000993 L13.9268879,5.00001488 C14.9329105,4.99684957 15.8735476,5.49814716 16.4327937,6.33637487 L18.6109898,9.61274497 L23.6750341,10.7556511 C25.0367257,11.0700941 26.0009301,12.2831256 26.0000343,13.6800099 L26.0000343,16.5000099 C26.0000343,17.6045794 25.1046038,18.5000099 24.0000343,18.5000099 L21.8550949,18.5000099 Z M6.50003426,19.0000099 C7.32846138,19.0000099 8.00003426,18.3284371 8.00003426,17.5000099 C8.00003426,16.6715828 7.32846138,16.0000099 6.50003426,16.0000099 C5.67160713,16.0000099 5.00003426,16.6715828 5.00003426,17.5000099 C5.00003426,18.3284371 5.67160713,19.0000099 6.50003426,19.0000099 Z M18.5000343,19.0000099 C19.3284614,19.0000099 20.0000343,18.3284371 20.0000343,17.5000099 C20.0000343,16.6715828 19.3284614,16.0000099 18.5000343,16.0000099 C17.6716071,16.0000099 17.0000343,16.6715828 17.0000343,17.5000099 C17.0000343,18.3284371 17.6716071,19.0000099 18.5000343,19.0000099 Z" id="Combined-Shape" fill="#FFFFFF" fill-rule="nonzero"></path>
    </g>
</svg>