<?xml version="1.0" encoding="UTF-8"?>
<svg width="20px" height="20px" viewBox="0 0 20 20" version="1.1" xmlns="http://www.w3.org/2000/svg" xmlns:xlink="http://www.w3.org/1999/xlink">
    <!-- Generator: Sketch 51.2 (57519) - http://www.bohemiancoding.com/sketch -->
    <title>icn/handling-default</title>
    <desc>Created with Sketch.</desc>
    <defs></defs>
    <g id="icn/handling-default" stroke="none" stroke-width="1" fill="none" fill-rule="evenodd">
        <path d="M10,0 C4.5,0 0,4.5 0,10 C0,15.5 4.5,20 10,20 C15.5,20 20,15.5 20,10 C20,4.5 15.5,0 10,0 Z M10,2.5 C12.898438,2.5 15.5,4.199219 16.699219,6.699219 C16.898438,7.199219 16.398438,7.699219 16,7.398438 C14.699219,6.800781 12.5,5.898438 10,5.898438 C7.5,5.898438 5.300781,6.800781 4,7.398438 C3.5,7.601563 3,7.101563 3.300781,6.699219 C4.5,4.199219 7.101563,2.5 10,2.5 Z M8.398438,16.898438 C8.398438,17.101563 8.199219,17.300781 8,17.199219 C5.5,16.5 3.5,14.5 2.800781,12 C2.699219,11.800781 2.898438,11.601563 3.101563,11.601563 L3.199219,11.601563 C6.101563,11.601563 8.398438,13.898438 8.398438,16.898438 Z M10,12.101563 C8.898438,12.101563 7.898438,11.199219 7.898438,10 C7.898438,8.800781 8.800781,7.898438 10,7.898438 C11.199219,7.898438 12.101563,8.800781 12.101563,10 C12.101563,11.199219 11.101563,12.101563 10,12.101563 Z M12,17.199219 C11.800781,17.300781 11.601563,17.101563 11.601563,16.898438 L11.601563,16.800781 C11.601563,13.898438 13.898438,11.601563 16.800781,11.601563 L16.898438,11.601563 C17.101563,11.601563 17.300781,11.800781 17.199219,12 C16.5,14.5 14.5,16.5 12,17.199219 Z" id="Shape" fill="#787C83" fill-rule="nonzero"></path>
    </g>
</svg>