<?xml version="1.0" encoding="UTF-8"?>
<svg width="60px" height="60px" viewBox="0 0 60 60" version="1.1" xmlns="http://www.w3.org/2000/svg" xmlns:xlink="http://www.w3.org/1999/xlink">
    <title>icon/marketing/image-free-valuation</title>
    <g id="icon/marketing/image-free-valuation" stroke="none" stroke-width="1" fill="none" fill-rule="evenodd">
        <path d="M32,16 L24,16 C22.8954305,16 22,16.8954305 22,18 L22,54 C22,55.1045695 22.8954305,56 24,56 L32,56 C33.1045695,56 34,55.1045695 34,54 L34,18 C34,16.8954305 33.1045695,16 32,16 Z" id="Path" fill="#0987EB" fill-rule="nonzero"></path>
        <polygon id="Path" fill="#A9E1FF" fill-rule="nonzero" points="24 18 32 18 32 54 24 54"></polygon>
        <path d="M52,9 L2,9 C0.8954305,9 0,9.8954305 0,11 L0,46 C0,47.1045695 0.8954305,48 2,48 L52,48 C53.1045695,48 54,47.1045695 54,46 L54,11 C54,9.8954305 53.1045695,9 52,9 Z" id="Path" fill="#0987EB" fill-rule="nonzero"></path>
        <polygon id="Path" fill="#D2EFFF" fill-rule="nonzero" points="2 11 52 11 52 46 2 46"></polygon>
        <rect id="Rectangle-15" fill="#76C7F3" x="24" y="48" width="8" height="2"></rect>
        <rect id="Rectangle-Copy-2" fill="#0987EB" x="17" y="54" width="22" height="2" rx="1"></rect>
        <rect id="Rectangle-Copy-3" fill="#A9E1FF" x="6" y="15" width="42" height="27"></rect>
        <g id="Group" transform="translate(16.000000, 22.000000)">
            <path d="M21.8551284,13.5 C21.4248538,14.9457544 20.0855781,16 18.5000677,16 C16.9145574,16 15.5752817,14.9457544 15.1450071,13.5 L9.85512841,13.5 C9.42485382,14.9457544 8.08557807,16 6.50006775,16 C4.86070383,16 3.48458582,14.8729202 3.10433495,13.351362 L1.02010185,12.1617516 C0.384861518,11.8047121 -0.00591606589,11.1304293 0,10.41001 L0,6.4342659 L3.75191944,4.74057286 L4.58686243,2.9625102 C5.39043712,1.16170253 7.17739929,0.00140106135 9.15006775,0 L13.9269214,0 C14.932944,-0.00315041435 15.8735811,0.498147176 16.4328272,1.33637489 L18.6110233,4.61274499 L23.6750675,5.75565114 C25.0367591,6.07009416 26.0009636,7.2831256 26.0000684,8.68000995 L26.0000684,11.5 C26.0000684,12.6045795 25.1046372,13.5 24.0000677,13.5 L21.8551284,13.5 L21.8551284,13.5 Z" id="Path" fill="#FFFFFF"></path>
            <path d="M6.50006775,14.00001 C7.32849487,14.00001 8.00006775,13.3284371 8.00006775,12.50001 C8.00006775,11.6715828 7.32849487,11.00001 6.50006775,11.00001 C5.67164063,11.00001 5.00006775,11.6715828 5.00006775,12.50001 C5.00006775,13.3284371 5.67164063,14.00001 6.50006775,14.00001 Z" id="Path" fill="#FFFFFF"></path>
            <path d="M18.5000677,14.00001 C19.3284949,14.00001 20.0000677,13.3284371 20.0000677,12.50001 C20.0000677,11.6715828 19.3284949,11.00001 18.5000677,11.00001 C17.6716406,11.00001 17.0000677,11.6715828 17.0000677,12.50001 C17.0000677,13.3284371 17.6716406,14.00001 18.5000677,14.00001 Z" id="Path" fill="#FFFFFF"></path>
            <path d="M21.8551284,11.5000049 L24.0000682,11.5000049 L24.0000682,8.67936876 C24.0003666,8.21352692 23.6789652,7.8091831 23.2299168,7.70547576 L17.3891129,6.38727598 L17.1673083,6.05364501 L14.7682141,2.445005 C14.5821007,2.16604909 14.268555,1.9989499 13.9300677,2.00000494 L9.15077307,2.00000494 C7.96759518,2.00084422 6.89541788,2.6970251 6.40527133,3.79498816 L5.24825707,6.25942853 L2.00003365,7.72575698 L2.00003365,10.4182684 L3.27227341,11.1443902 C3.80199896,9.8846025 5.04772952,9.00000494 6.50006775,9.00000494 C8.08557807,9.00000494 9.42485382,10.0542655 9.85512841,11.5000049 L15.1450071,11.5000049 C15.5752817,10.0542655 16.9145574,9.00000494 18.5000677,9.00000494 C20.0855781,9.00000494 21.4248538,10.0542655 21.8551284,11.5000049 L21.8551284,11.5000049 Z M21.8551284,13.5 C21.4248538,14.9457544 20.0855781,16 18.5000677,16 C16.9145574,16 15.5752817,14.9457544 15.1450071,13.5 L9.85512841,13.5 C9.42485382,14.9457544 8.08557807,16 6.50006775,16 C4.86070383,16 3.48458582,14.8729202 3.10433495,13.351362 L1.02010185,12.1617516 C0.384861518,11.8047121 -0.00591606589,11.1304293 0,10.41001 L0,6.4342659 L3.75191944,4.74057286 L4.58686243,2.9625102 C5.39043712,1.16170253 7.17739929,0.00140106135 9.15006775,0 L13.9269214,0 C14.932944,-0.00315041435 15.8735811,0.498147176 16.4328272,1.33637489 L18.6110233,4.61274499 L23.6750675,5.75565114 C25.0367591,6.07009416 26.0009636,7.2831256 26.0000684,8.68000995 L26.0000684,11.5 C26.0000684,12.6045795 25.1046372,13.5 24.0000677,13.5 L21.8551284,13.5 L21.8551284,13.5 Z M6.50006775,14.00001 C7.32849487,14.00001 8.00006775,13.3284371 8.00006775,12.50001 C8.00006775,11.6715828 7.32849487,11.00001 6.50006775,11.00001 C5.67164063,11.00001 5.00006775,11.6715828 5.00006775,12.50001 C5.00006775,13.3284371 5.67164063,14.00001 6.50006775,14.00001 Z M18.5000677,14.00001 C19.3284949,14.00001 20.0000677,13.3284371 20.0000677,12.50001 C20.0000677,11.6715828 19.3284949,11.00001 18.5000677,11.00001 C17.6716406,11.00001 17.0000677,11.6715828 17.0000677,12.50001 C17.0000677,13.3284371 17.6716406,14.00001 18.5000677,14.00001 Z" id="Combined-Shape" fill="#0987EB" fill-rule="nonzero"></path>
        </g>
        <rect id="Rectangle" fill="#0067CA" opacity="0.195826539" x="20" y="3" width="40" height="20" rx="10"></rect>
        <path d="M49.5,0 L29.5,0 C23.7010101,0 19,4.70101013 19,10.5 C19,16.2989899 23.7010101,21 29.5,21 L49.5,21 C55.2989899,21 60,16.2989899 60,10.5 C60,4.70101013 55.2989899,0 49.5,0 Z" id="Path" fill="#0987EB" fill-rule="nonzero"></path>
        <path d="M29.5,2 L49.5,2 C54.1944204,2 58,5.80557963 58,10.5 C58,15.1944204 54.1944204,19 49.5,19 L29.5,19 C24.8055796,19 21,15.1944204 21,10.5 C21,5.80557963 24.8055796,2 29.5,2 Z" id="Path" fill="#FFFFFF" fill-rule="nonzero"></path>
        <path d="M28.862,14 C28.95,14 29.022,13.972 29.078,13.916 C29.134,13.86 29.162,13.792 29.162,13.712 L29.162,13.712 L29.162,10.736 L32.774,10.736 C32.862,10.736 32.934,10.708 32.99,10.652 C33.046,10.596 33.074,10.528 33.074,10.448 L33.074,10.448 L33.074,9.608 C33.074,9.52 33.046,9.448 32.99,9.392 C32.934,9.336 32.862,9.308 32.774,9.308 L32.774,9.308 L29.162,9.308 L29.162,7.028 L33.014,7.028 C33.102,7.028 33.174,7.002 33.23,6.95 C33.286,6.898 33.314,6.828 33.314,6.74 L33.314,6.74 L33.314,5.9 C33.314,5.812 33.286,5.74 33.23,5.684 C33.174,5.628 33.102,5.6 33.014,5.6 L33.014,5.6 L27.806,5.6 C27.726,5.6 27.658,5.628 27.602,5.684 C27.546,5.74 27.518,5.812 27.518,5.9 L27.518,5.9 L27.518,13.712 C27.518,13.792 27.546,13.86 27.602,13.916 C27.658,13.972 27.726,14 27.806,14 L27.806,14 L28.862,14 Z M35.774,14 C35.862,14 35.934,13.972 35.99,13.916 C36.046,13.86 36.074,13.792 36.074,13.712 L36.074,13.712 L36.074,10.412 C36.074,10.028 36.18,9.73 36.392,9.518 C36.604,9.306 36.902,9.2 37.286,9.2 L37.286,9.2 L38.222,9.2 C38.31,9.2 38.38,9.172 38.432,9.116 C38.484,9.06 38.51,8.992 38.51,8.912 L38.51,8.912 L38.51,8.048 C38.51,7.968 38.484,7.9 38.432,7.844 C38.38,7.788 38.31,7.76 38.222,7.76 L38.222,7.76 L37.73,7.76 C37.346,7.76 37.008,7.828 36.716,7.964 C36.424,8.1 36.186,8.296 36.002,8.552 L36.002,8.552 L36.002,8.06 C36.002,7.972 35.972,7.9 35.912,7.844 C35.852,7.788 35.782,7.76 35.702,7.76 L35.702,7.76 L34.73,7.76 C34.65,7.76 34.582,7.788 34.526,7.844 C34.47,7.9 34.442,7.972 34.442,8.06 L34.442,8.06 L34.442,13.712 C34.442,13.792 34.47,13.86 34.526,13.916 C34.582,13.972 34.65,14 34.73,14 L34.73,14 L35.774,14 Z M42.05,14.12 C42.498,14.12 42.896,14.062 43.244,13.946 C43.592,13.83 43.882,13.684 44.114,13.508 C44.346,13.332 44.524,13.152 44.648,12.968 C44.772,12.784 44.838,12.628 44.846,12.5 C44.854,12.428 44.832,12.368 44.78,12.32 C44.728,12.272 44.662,12.248 44.582,12.248 L44.582,12.248 L43.55,12.248 C43.462,12.248 43.396,12.258 43.352,12.278 C43.308,12.298 43.25,12.356 43.178,12.452 C43.138,12.508 43.07,12.58 42.974,12.668 C42.878,12.756 42.754,12.834 42.602,12.902 C42.45,12.97 42.262,13.004 42.038,13.004 C41.766,13.004 41.532,12.932 41.336,12.788 C41.14,12.644 40.992,12.454 40.892,12.218 C40.792,11.982 40.738,11.724 40.73,11.444 L40.73,11.444 L40.73,11.348 L44.714,11.348 C44.802,11.348 44.874,11.32 44.93,11.264 C44.986,11.208 45.014,11.14 45.014,11.06 L45.014,11.06 L45.014,10.808 C45.014,10.184 44.902,9.634 44.678,9.158 C44.454,8.682 44.122,8.31 43.682,8.042 C43.242,7.774 42.698,7.64 42.05,7.64 C41.466,7.64 40.958,7.758 40.526,7.994 C40.094,8.23 39.756,8.566 39.512,9.002 C39.268,9.438 39.13,9.96 39.098,10.568 C39.09,10.64 39.086,10.738 39.086,10.862 C39.086,10.986 39.09,11.088 39.098,11.168 C39.138,12.112 39.418,12.84 39.938,13.352 C40.458,13.864 41.162,14.12 42.05,14.12 Z M43.382,10.34 L40.73,10.34 L40.73,10.304 C40.73,9.992 40.78,9.718 40.88,9.482 C40.98,9.246 41.13,9.062 41.33,8.93 C41.53,8.798 41.77,8.732 42.05,8.732 C42.33,8.732 42.57,8.798 42.77,8.93 C42.97,9.062 43.122,9.246 43.226,9.482 C43.33,9.718 43.382,9.992 43.382,10.304 L43.382,10.304 L43.382,10.34 Z M48.974,14.12 C49.422,14.12 49.82,14.062 50.168,13.946 C50.516,13.83 50.806,13.684 51.038,13.508 C51.27,13.332 51.448,13.152 51.572,12.968 C51.696,12.784 51.762,12.628 51.77,12.5 C51.778,12.428 51.756,12.368 51.704,12.32 C51.652,12.272 51.586,12.248 51.506,12.248 L51.506,12.248 L50.474,12.248 C50.386,12.248 50.32,12.258 50.276,12.278 C50.232,12.298 50.174,12.356 50.102,12.452 C50.062,12.508 49.994,12.58 49.898,12.668 C49.802,12.756 49.678,12.834 49.526,12.902 C49.374,12.97 49.186,13.004 48.962,13.004 C48.69,13.004 48.456,12.932 48.26,12.788 C48.064,12.644 47.916,12.454 47.816,12.218 C47.716,11.982 47.662,11.724 47.654,11.444 L47.654,11.444 L47.654,11.348 L51.638,11.348 C51.726,11.348 51.798,11.32 51.854,11.264 C51.91,11.208 51.938,11.14 51.938,11.06 L51.938,11.06 L51.938,10.808 C51.938,10.184 51.826,9.634 51.602,9.158 C51.378,8.682 51.046,8.31 50.606,8.042 C50.166,7.774 49.622,7.64 48.974,7.64 C48.39,7.64 47.882,7.758 47.45,7.994 C47.018,8.23 46.68,8.566 46.436,9.002 C46.192,9.438 46.054,9.96 46.022,10.568 C46.014,10.64 46.01,10.738 46.01,10.862 C46.01,10.986 46.014,11.088 46.022,11.168 C46.062,12.112 46.342,12.84 46.862,13.352 C47.382,13.864 48.086,14.12 48.974,14.12 Z M50.306,10.34 L47.654,10.34 L47.654,10.304 C47.654,9.992 47.704,9.718 47.804,9.482 C47.904,9.246 48.054,9.062 48.254,8.93 C48.454,8.798 48.694,8.732 48.974,8.732 C49.254,8.732 49.494,8.798 49.694,8.93 C49.894,9.062 50.046,9.246 50.15,9.482 C50.254,9.718 50.306,9.992 50.306,10.304 L50.306,10.304 L50.306,10.34 Z" id="Free" fill="#0987EB" fill-rule="nonzero"></path>
        <path d="M16.79985,33.6 C17.1312208,33.6 17.39985,33.8686292 17.39985,34.2 L17.39985,34.2 L17.39985,38.6482719 C17.39985,38.8074018 17.3366359,38.9600141 17.2241141,39.0725359 L17.2241141,39.0725359 L11.64825,44.6484 C11.17965,45.117 10.42005,45.117 9.95145,44.6484 L9.95145,44.6484 L9.07927089,43.7762209 C8.83498839,43.5319384 8.5673947,43.2643447 8.29715398,42.994104 L6.35145,41.0484 C5.88285,40.5798 5.88285,39.8202 6.35145,39.3516 L6.35145,39.3516 L11.9273141,33.7757359 C12.0398359,33.6632141 12.1924482,33.6 12.3515781,33.6 L12.3515781,33.6 Z M15.29985,34.8 C14.80305,34.8 14.39985,35.2032 14.39985,35.7 C14.39985,36.1968 14.80305,36.6 15.29985,36.6 C15.79665,36.6 16.19985,36.1968 16.19985,35.7 C16.19985,35.2032 15.79665,34.8 15.29985,34.8 Z" id="Combined-Shape" fill="#0987EB" fill-rule="nonzero"></path>
        <path d="M11.9638182,36.6 L13.3027956,37.9389774 C13.7151803,38.3513621 13.9290093,38.7993849 13.9290093,39.2474078 C13.9290093,39.6343366 13.7559096,40.0212655 13.404619,40.3725561 L13.3842543,40.3929208 C12.8445904,40.9325847 12.2336501,41.003861 11.6685304,40.7849408 L11.1034106,42.8672288 L10.2582766,42.0220948 L10.7724847,40.1943652 L10.3091883,39.7310688 L9.13821948,40.9020377 L8.4,40.1638182 L11.9638182,36.6 Z M12.0350945,38.0051626 L10.9608579,39.0793992 L11.505613,39.6241543 C11.8823595,40.0009008 12.2998353,39.9907184 12.620579,39.6699748 L12.6256701,39.6648836 C12.9820519,39.3085018 12.9413226,38.9113906 12.5645761,38.5346442 L12.0350945,38.0051626 Z" id="Combined-Shape" fill="#FFFFFF"></path>
    </g>
</svg>