<svg xmlns="http://www.w3.org/2000/svg" width="60" height="60" viewBox="0 0 60 60">
    <g fill="none" fill-rule="evenodd">
        <rect width="58" height="32" x="1" y="14" fill="#D2EFFF" stroke="#0987EB" stroke-width="2" rx="1"/>
        <path fill="#A9E1FF" d="M4 18h30v24H4z"/>
        <path fill="#FFF" d="M27.855 35.5a3.502 3.502 0 0 1-6.71 0h-5.29a3.502 3.502 0 0 1-6.75-.149l-2.085-1.19A1.997 1.997 0 0 1 6 32.41v-3.976l3.752-1.693.835-1.778A5 5 0 0 1 15.15 22h4.777a3 3 0 0 1 2.506 1.336l2.178 3.277 5.064 1.143A3 3 0 0 1 32 30.68v2.82a2 2 0 0 1-2 2h-2.145z"/>
        <path fill="#FFF" d="M12.5 36a1.5 1.5 0 1 0 0-3 1.5 1.5 0 0 0 0 3zM24.5 36a1.5 1.5 0 1 0 0-3 1.5 1.5 0 0 0 0 3z"/>
        <path fill="#0987EB" fill-rule="nonzero" d="M27.855 33.5H30v-2.82a.999.999 0 0 0-.77-.975l-5.84-1.318-.223-.333-2.399-3.609A1.001 1.001 0 0 0 19.93 24h-4.78a3.007 3.007 0 0 0-2.745 1.795l-1.157 2.464L8 29.726v2.692l1.272.726a3.501 3.501 0 0 1 6.583.356h5.29a3.502 3.502 0 0 1 6.71 0zm0 2a3.502 3.502 0 0 1-6.71 0h-5.29a3.502 3.502 0 0 1-6.75-.149l-2.085-1.19A1.997 1.997 0 0 1 6 32.41v-3.976l3.752-1.693.835-1.778A5 5 0 0 1 15.15 22h4.777a3 3 0 0 1 2.506 1.336l2.178 3.277 5.064 1.143A3 3 0 0 1 32 30.68v2.82a2 2 0 0 1-2 2h-2.145zM12.5 36a1.5 1.5 0 1 0 0-3 1.5 1.5 0 0 0 0 3zm12 0a1.5 1.5 0 1 0 0-3 1.5 1.5 0 0 0 0 3z"/>
        <path fill="#0987EB" d="M36 21h18v2H36zM36 25h8v2h-8zM36 32h15v2H36zM36 36h7v2h-7z"/>
        <path fill="#0067CA" d="M51.481 33.411c.342-.11.73-.171 1.166-.171 1.003 0 1.85.412 2.412 1.102.226-.048.463-.073.707-.073 1.415 0 2.45.806 2.925 1.958.242.587.309 1.12.309 1.693v9.36c0 3.154-2.613 5.72-5.824 5.72h-4.814c-2.201 0-4.25-1.237-5.186-3.149l-1.473-2.892-.067-.145a9.726 9.726 0 0 1-.37-1.03A5.888 5.888 0 0 1 41 44.112c0-1.6.591-2.807 1.611-3.671.17-.144.34-.269.507-.377V30.07c0-.94.39-1.74 1.073-2.313A3.325 3.325 0 0 1 46.294 27c.751 0 1.527.269 2.113.767.69.585 1.064 1.4 1.064 2.353v2.6c.791 0 1.479.264 2.01.691z" opacity=".196"/>
        <path fill="#FFF" fill-rule="nonzero" stroke="#0987EB" stroke-width="2" d="M50 35.76a2 2 0 0 1 1-.26c.744 0 1.341.376 1.683.913.319-.256.754-.413 1.317-.413 1.05 0 1.607.506 1.848 1.301.308-.2.683-.312 1.098-.312.895 0 1.53.504 1.835 1.258.17.418.219.82.219 1.253v9c0 2.48-2.02 4.5-4.5 4.5h-4.547c-1.698 0-3.28-.973-4.004-2.475l-1.422-2.85c-.334-.82-.527-1.486-.527-2.222 0-1.24.427-2.127 1.175-2.773.287-.247.57-.42.825-.532V31.953c0-.606.236-1.099.663-1.463.366-.313.864-.49 1.337-.49.475 0 .975.176 1.342.494.43.371.658.879.658 1.506v3.76z"/>
    </g>
</svg>
